<?xml version="1.0" encoding="utf-8"?>
<!-- Generator: Adobe Illustrator 16.0.0, SVG Export Plug-In . SVG Version: 6.00 Build 0)  -->
<!DOCTYPE svg PUBLIC "-//W3C//DTD SVG 1.1//EN" "http://www.w3.org/Graphics/SVG/1.1/DTD/svg11.dtd">
<svg version="1.1" id="Layer_1" xmlns="http://www.w3.org/2000/svg" xmlns:xlink="http://www.w3.org/1999/xlink" x="0px" y="0px"
	 width="107px" height="107px" viewBox="0 0 107 107" enable-background="new 0 0 107 107" xml:space="preserve">
<circle cx="53.5" cy="53.5" r="53.5"/>
<path fill="#FFFFFF" d="M39.473,93.848c-0.93-0.34-1.559-0.937-1.886-1.79c-0.337-0.857-0.267-1.938,0.209-3.245
	c0.312-0.854,0.708-1.529,1.187-2.025c0.466-0.49,0.989-0.8,1.568-0.93c0.566-0.123,1.165-0.069,1.794,0.16
	c0.385,0.141,0.709,0.317,0.972,0.53c0.263,0.213,0.473,0.438,0.631,0.677c0.145,0.245,0.257,0.493,0.335,0.746l0.084,0.03
	c0.04-0.167,0.095-0.376,0.165-0.626c0.07-0.252,0.138-0.467,0.203-0.645l1.131-3.101l1.24,0.452l-3.99,10.936l-1.015-0.371
	l0.207-1.09l-0.057-0.021c-0.229,0.161-0.479,0.294-0.751,0.396c-0.281,0.1-0.586,0.147-0.915,0.146
	C40.248,94.071,39.876,93.994,39.473,93.848z M40.079,92.887c0.507,0.186,0.952,0.235,1.334,0.151
	c0.378-0.075,0.708-0.279,0.99-0.612c0.281-0.334,0.535-0.795,0.76-1.384l0.087-0.239c0.226-0.62,0.353-1.17,0.378-1.65
	c0.026-0.48-0.075-0.89-0.302-1.229c-0.237-0.342-0.628-0.612-1.173-0.811c-0.46-0.168-0.882-0.179-1.266-0.031
	c-0.393,0.145-0.739,0.406-1.038,0.787c-0.311,0.387-0.57,0.861-0.775,1.426c-0.315,0.864-0.398,1.616-0.249,2.256
	C38.966,92.188,39.383,92.633,40.079,92.887z"/>
<path fill="#FFFFFF" d="M25.293,79.381c0.465-0.482,0.942-0.85,1.433-1.1c0.477-0.249,0.958-0.389,1.446-0.419
	c0.48-0.038,0.955,0.038,1.426,0.228c0.456,0.189,0.89,0.482,1.3,0.877c0.381,0.367,0.672,0.772,0.872,1.215
	c0.192,0.448,0.282,0.917,0.271,1.405c-0.012,0.488-0.126,0.981-0.343,1.481c-0.231,0.499-0.579,0.99-1.044,1.473
	c-0.617,0.641-1.246,1.077-1.885,1.309c-0.646,0.238-1.282,0.279-1.907,0.121c-0.632-0.15-1.226-0.493-1.78-1.027
	c-0.526-0.506-0.873-1.069-1.04-1.688c-0.182-0.619-0.169-1.259,0.038-1.921C24.271,80.673,24.676,80.021,25.293,79.381z
	 M29.669,83.594c0.437-0.453,0.761-0.905,0.971-1.354c0.197-0.449,0.256-0.886,0.177-1.308c-0.079-0.424-0.313-0.822-0.702-1.197
	c-0.389-0.374-0.796-0.593-1.222-0.655c-0.426-0.063-0.855,0.017-1.29,0.236c-0.448,0.221-0.891,0.558-1.328,1.012
	c-0.444,0.461-0.761,0.913-0.95,1.354c-0.19,0.442-0.242,0.871-0.156,1.287c0.072,0.416,0.305,0.814,0.702,1.195
	c0.591,0.569,1.207,0.787,1.848,0.655C28.36,84.687,29.01,84.278,29.669,83.594z"/>
<path fill="#FFFFFF" d="M15.031,70.421c-0.063-0.137-0.12-0.286-0.172-0.449c-0.066-0.168-0.112-0.317-0.139-0.448l1.173-0.355
	c0.027,0.131,0.064,0.273,0.113,0.427c0.044,0.146,0.096,0.281,0.154,0.408c0.129,0.282,0.311,0.523,0.546,0.724
	c0.234,0.201,0.507,0.351,0.816,0.451c0.301,0.104,0.628,0.146,0.982,0.127c0.35-0.027,0.711-0.127,1.084-0.298l3.9-1.785l0.55,1.2
	l-7.311,3.346l-0.45-0.981l1.274-0.749l-0.025-0.054c-0.344-0.03-0.675-0.104-0.993-0.222c-0.327-0.115-0.619-0.283-0.875-0.508
	C15.395,71.035,15.185,70.757,15.031,70.421z"/>
<path fill="#FFFFFF" d="M19.203,57.122c-0.022-0.199-0.059-0.401-0.112-0.606c-0.063-0.205-0.121-0.369-0.175-0.494l0.999-0.109
	c0.085,0.131,0.162,0.324,0.229,0.578c0.078,0.252,0.13,0.498,0.157,0.736c0.046,0.418,0.02,0.813-0.081,1.187
	c-0.11,0.364-0.333,0.676-0.667,0.934c-0.333,0.259-0.824,0.423-1.47,0.494l-4.652,0.513l0.125,1.133l-0.626,0.069l-0.648-1.091
	l-1.757-0.334l-0.085-0.775l1.834-0.202l-0.255-2.311l1.014-0.112l0.255,2.311l4.622-0.509c0.487-0.054,0.837-0.208,1.05-0.463
	C19.163,57.806,19.243,57.49,19.203,57.122z"/>
<path fill="#FFFFFF" d="M14.176,44.328l-0.394,1.986l6.886,1.365l-0.256,1.295l-6.886-1.365l-0.274,1.383l-0.603-0.12l-0.167-1.471
	l-0.456-0.09c-0.677-0.134-1.207-0.341-1.59-0.621c-0.381-0.29-0.631-0.645-0.752-1.066c-0.12-0.421-0.127-0.902-0.02-1.441
	c0.063-0.314,0.148-0.593,0.258-0.836c0.102-0.255,0.205-0.469,0.311-0.642l0.948,0.54c-0.08,0.147-0.165,0.319-0.255,0.515
	c-0.09,0.196-0.156,0.402-0.199,0.618c-0.086,0.432-0.003,0.785,0.249,1.059c0.243,0.262,0.674,0.455,1.292,0.578l0.515,0.102
	l0.394-1.986L14.176,44.328z"/>
<path fill="#FFFFFF" d="M23.465,31.374c0.569,0.354,1.026,0.745,1.373,1.173c0.343,0.414,0.58,0.856,0.711,1.326
	c0.137,0.462,0.161,0.943,0.074,1.442c-0.09,0.485-0.286,0.97-0.588,1.454c-0.28,0.45-0.615,0.818-1.006,1.105
	c-0.399,0.282-0.839,0.467-1.319,0.557c-0.48,0.09-0.987,0.081-1.52-0.027c-0.537-0.122-1.089-0.36-1.658-0.714
	c-0.755-0.47-1.313-0.994-1.672-1.571c-0.368-0.583-0.54-1.196-0.515-1.841c0.016-0.649,0.227-1.301,0.634-1.955
	c0.386-0.62,0.864-1.076,1.435-1.368c0.568-0.306,1.197-0.427,1.887-0.363C21.988,30.643,22.709,30.904,23.465,31.374z
	 M20.254,36.531c0.535,0.333,1.044,0.556,1.527,0.668c0.48,0.099,0.919,0.066,1.316-0.099c0.397-0.165,0.739-0.477,1.024-0.936
	c0.286-0.458,0.415-0.902,0.387-1.331c-0.027-0.43-0.193-0.833-0.5-1.212c-0.309-0.393-0.731-0.756-1.266-1.089
	c-0.543-0.338-1.051-0.554-1.522-0.647C20.749,31.792,20.318,31.83,19.93,32c-0.392,0.156-0.733,0.468-1.024,0.935
	c-0.434,0.696-0.519,1.344-0.256,1.943S19.447,36.029,20.254,36.531z"/>
<path fill="#FFFFFF" d="M33.095,27.45l-1.026,0.831l-7.173-8.86l1.026-0.831L33.095,27.45z"/>
<path fill="#FFFFFF" d="M37.021,15.798l3.356,7.306l-1.2,0.551l-3.355-7.307L37.021,15.798z M35.176,13.327
	c0.182-0.083,0.37-0.093,0.565-0.028c0.2,0.051,0.36,0.209,0.481,0.473c0.117,0.254,0.132,0.479,0.045,0.672
	c-0.078,0.19-0.208,0.327-0.39,0.41c-0.2,0.092-0.397,0.105-0.592,0.041c-0.195-0.064-0.351-0.224-0.467-0.479
	c-0.121-0.264-0.141-0.485-0.059-0.667C34.837,13.56,34.976,13.419,35.176,13.327z"/>
<path fill="#FFFFFF" d="M53.584,16.077c0.065,0.667,0.033,1.268-0.096,1.803c-0.12,0.524-0.326,0.981-0.62,1.372
	c-0.284,0.389-0.65,0.701-1.099,0.936c-0.44,0.224-0.944,0.363-1.512,0.419c-0.527,0.051-1.024,0.009-1.489-0.126
	c-0.466-0.146-0.881-0.382-1.245-0.708c-0.363-0.326-0.664-0.734-0.903-1.223c-0.229-0.5-0.377-1.083-0.442-1.75
	c-0.086-0.886-0.01-1.646,0.229-2.283c0.238-0.646,0.621-1.156,1.147-1.529c0.525-0.383,1.171-0.611,1.938-0.686
	c0.727-0.071,1.379,0.031,1.959,0.306c0.588,0.264,1.067,0.69,1.436,1.277C53.266,14.46,53.498,15.191,53.584,16.077z
	 M47.538,16.667c0.061,0.627,0.194,1.167,0.399,1.619c0.214,0.441,0.507,0.77,0.88,0.984c0.373,0.215,0.828,0.296,1.365,0.244
	c0.537-0.053,0.968-0.22,1.292-0.503c0.324-0.283,0.543-0.661,0.658-1.134c0.124-0.484,0.155-1.04,0.094-1.667
	c-0.063-0.637-0.2-1.171-0.413-1.603c-0.213-0.432-0.505-0.75-0.877-0.955c-0.362-0.216-0.818-0.297-1.365-0.244
	c-0.816,0.08-1.382,0.406-1.698,0.979C47.557,14.962,47.445,15.721,47.538,16.667z"/>
<path fill="#FFFFFF" d="M76.145,22.678c0.074-0.205,0.146-0.407,0.215-0.604c0.074-0.206,0.144-0.396,0.208-0.571
	c0.079-0.178,0.149-0.343,0.21-0.496c0.061-0.153,0.115-0.28,0.164-0.381l-0.049-0.035c-0.08,0.077-0.184,0.169-0.311,0.276
	c-0.117,0.112-0.252,0.23-0.404,0.355c-0.143,0.13-0.301,0.263-0.473,0.398c-0.157,0.133-0.326,0.264-0.506,0.394l-3.809,2.819
	l-1.217-0.877l2.916-7.811l1.107,0.799l-1.61,4.128c-0.104,0.282-0.217,0.565-0.335,0.85c-0.113,0.276-0.229,0.538-0.346,0.786
	c-0.104,0.246-0.203,0.452-0.298,0.618l0.048,0.035c0.096-0.08,0.211-0.181,0.35-0.303c0.137-0.123,0.281-0.253,0.43-0.392
	c0.158-0.133,0.316-0.266,0.473-0.399c0.166-0.127,0.316-0.241,0.451-0.341l3.806-2.84l1.167,0.842l-1.531,4.481
	c-0.077,0.228-0.164,0.467-0.26,0.719c-0.087,0.258-0.18,0.505-0.277,0.743c-0.092,0.23-0.185,0.428-0.279,0.593l0.049,0.035
	c0.115-0.126,0.267-0.276,0.453-0.449c0.201-0.176,0.418-0.365,0.65-0.567c0.246-0.205,0.488-0.405,0.729-0.602l3.423-2.821
	l1.094,0.79l-6.516,5.212l-1.254-0.904L76.145,22.678z"/>
<path fill="#FFFFFF" d="M91.246,34.383c0.322,0.609,0.467,1.201,0.432,1.774c-0.031,0.583-0.229,1.117-0.594,1.604
	c-0.35,0.491-0.848,0.908-1.492,1.25l-0.703,0.373l-2.578-4.864c-0.795,0.444-1.301,0.973-1.52,1.586
	c-0.204,0.618-0.119,1.28,0.256,1.987c0.238,0.451,0.489,0.827,0.752,1.129c0.275,0.307,0.591,0.604,0.947,0.89l-1.021,0.541
	c-0.351-0.278-0.655-0.575-0.914-0.891c-0.266-0.311-0.528-0.71-0.786-1.196c-0.356-0.671-0.535-1.34-0.538-2.007
	c0.003-0.658,0.196-1.275,0.58-1.852c0.398-0.573,0.99-1.068,1.777-1.485c0.777-0.412,1.512-0.638,2.205-0.676
	c0.697-0.03,1.319,0.109,1.868,0.418C90.471,33.283,90.913,33.755,91.246,34.383z M90.285,34.875
	c-0.296-0.557-0.711-0.903-1.246-1.038c-0.522-0.131-1.118-0.058-1.787,0.217l1.918,3.618c0.406-0.215,0.727-0.464,0.962-0.748
	c0.235-0.283,0.368-0.597,0.4-0.942C90.578,35.642,90.495,35.273,90.285,34.875z"/>
<path fill="#FFFFFF" d="M96.295,48.249c-0.34,0.029-0.659,0.046-0.959,0.051c-0.291,0.015-0.521,0.019-0.691,0.014l0.006,0.074
	c0.357,0.201,0.669,0.49,0.932,0.87c0.264,0.379,0.422,0.882,0.475,1.51c0.084,0.997-0.197,1.823-0.844,2.48
	c-0.636,0.667-1.641,1.057-3.016,1.174c-0.918,0.078-1.696,0.004-2.338-0.223c-0.641-0.217-1.137-0.562-1.488-1.033
	c-0.351-0.472-0.555-1.037-0.609-1.695c-0.054-0.627,0.018-1.15,0.213-1.568s0.442-0.755,0.742-1.012l-0.01-0.104l-1.039-0.183
	l-0.08-0.942l11.359-0.963l0.112,1.315L96.295,48.249z M94.946,50.636c-0.048-0.568-0.196-1.007-0.442-1.317
	c-0.238-0.311-0.586-0.518-1.047-0.619c-0.449-0.102-1.02-0.124-1.707-0.066l-0.059,0.005c-0.986,0.083-1.73,0.307-2.232,0.671
	c-0.49,0.373-0.697,0.998-0.623,1.875c0.061,0.717,0.37,1.228,0.928,1.532c0.559,0.314,1.336,0.429,2.332,0.344
	c1.007-0.085,1.749-0.329,2.227-0.731C94.801,51.938,95.009,51.373,94.946,50.636z"/>
<path fill="#FFFFFF" d="M87.83,67.494c-0.496-0.156-0.873-0.41-1.129-0.764c-0.256-0.353-0.398-0.785-0.426-1.297
	s0.057-1.083,0.255-1.713c0.168-0.534,0.356-0.983,0.564-1.348c0.206-0.354,0.432-0.656,0.677-0.903l1.145,0.359
	c-0.248,0.257-0.506,0.579-0.775,0.968c-0.262,0.399-0.463,0.823-0.604,1.271c-0.201,0.64-0.246,1.134-0.135,1.482
	c0.119,0.353,0.352,0.582,0.695,0.69c0.19,0.06,0.379,0.062,0.564,0.005c0.186-0.058,0.398-0.2,0.637-0.43
	c0.237-0.219,0.53-0.551,0.88-0.997c0.347-0.437,0.671-0.801,0.972-1.094c0.303-0.293,0.617-0.493,0.943-0.601
	c0.328-0.106,0.701-0.094,1.121,0.038c0.648,0.204,1.066,0.623,1.255,1.259c0.186,0.645,0.144,1.396-0.126,2.256
	c-0.147,0.467-0.331,0.887-0.553,1.258c-0.215,0.383-0.459,0.726-0.731,1.027l-0.866-0.744c0.16-0.18,0.313-0.379,0.454-0.596
	c0.147-0.205,0.278-0.421,0.392-0.647c0.123-0.224,0.223-0.46,0.301-0.708c0.162-0.515,0.2-0.938,0.115-1.268
	c-0.078-0.318-0.26-0.522-0.547-0.612c-0.209-0.065-0.41-0.062-0.602,0.015c-0.183,0.08-0.391,0.24-0.623,0.48
	c-0.227,0.254-0.512,0.595-0.855,1.021c-0.334,0.43-0.65,0.786-0.949,1.069c-0.298,0.284-0.614,0.473-0.947,0.567
	C88.607,67.639,88.24,67.623,87.83,67.494z"/>
<path fill="#FFFFFF" d="M88.146,78.813l-6.59-4.604l0.756-1.082l6.59,4.604L88.146,78.813z M90.988,80.011
	c-0.115,0.164-0.272,0.267-0.474,0.31c-0.198,0.057-0.416,0.002-0.653-0.164c-0.23-0.16-0.356-0.346-0.379-0.557
	c-0.029-0.203,0.014-0.387,0.128-0.551c0.126-0.181,0.29-0.292,0.49-0.335s0.415,0.017,0.646,0.177
	c0.237,0.166,0.367,0.348,0.387,0.545C91.162,79.639,91.113,79.83,90.988,80.011z"/>
<path fill="#FFFFFF" d="M75.331,81.943c-0.155,0.127-0.305,0.268-0.448,0.424c-0.138,0.163-0.244,0.302-0.32,0.415l-0.635-0.78
	c0.064-0.143,0.186-0.311,0.361-0.506c0.17-0.203,0.349-0.381,0.535-0.531c0.325-0.266,0.672-0.458,1.039-0.576
	c0.367-0.105,0.748-0.087,1.146,0.053c0.398,0.141,0.803,0.463,1.213,0.967l2.954,3.631l0.884-0.721l0.398,0.489l-0.564,1.136
	l0.672,1.658l-0.605,0.492l-1.164-1.432l-1.804,1.469L78.35,87.34l1.803-1.469l-2.936-3.605c-0.309-0.381-0.629-0.591-0.959-0.632
	C75.928,81.607,75.618,81.711,75.331,81.943z"/>
<path fill="#FFFFFF" d="M68.048,94.039c-0.651,0.228-1.258,0.28-1.819,0.158c-0.571-0.118-1.07-0.395-1.496-0.828
	c-0.434-0.42-0.771-0.975-1.012-1.664l-0.262-0.751l5.197-1.815c-0.318-0.852-0.765-1.432-1.338-1.74
	c-0.58-0.295-1.248-0.312-2.003-0.047c-0.481,0.168-0.892,0.358-1.23,0.572c-0.345,0.226-0.686,0.493-1.022,0.802l-0.381-1.091
	c0.328-0.305,0.668-0.561,1.019-0.769c0.348-0.217,0.781-0.416,1.301-0.597c0.718-0.251,1.405-0.327,2.065-0.229
	c0.649,0.102,1.23,0.385,1.743,0.853c0.507,0.479,0.907,1.14,1.2,1.979c0.29,0.831,0.402,1.592,0.336,2.282
	c-0.076,0.693-0.308,1.288-0.695,1.784C69.252,93.438,68.719,93.805,68.048,94.039z M67.706,93.014
	c0.595-0.207,0.999-0.565,1.214-1.074c0.207-0.496,0.226-1.096,0.055-1.799l-3.866,1.35c0.151,0.435,0.35,0.789,0.594,1.064
	c0.244,0.274,0.534,0.453,0.871,0.537C66.903,93.188,67.281,93.162,67.706,93.014z"/>
<ellipse fill="#FFFFFF" cx="53.5" cy="54" rx="12.5" ry="12"/>
</svg>
