<svg width="41" height="38" viewBox="0 0 41 38" fill="none" xmlns="http://www.w3.org/2000/svg">
<path d="M15.7447 3.63525C17.2415 -0.971299 23.7585 -0.971295 25.2553 3.63526L26.4496 7.31105C27.119 9.37117 29.0388 10.766 31.2049 10.766H35.0699C39.9135 10.766 41.9274 16.964 38.0088 19.8111L34.882 22.0828C33.1295 23.356 32.3962 25.6129 33.0656 27.673L34.26 31.3488C35.7567 35.9553 30.4843 39.786 26.5657 36.9389L23.4389 34.6672C21.6865 33.394 19.3135 33.394 17.5611 34.6672L14.4343 36.9389C10.5157 39.786 5.24329 35.9553 6.74005 31.3488L7.93439 27.673C8.60376 25.6129 7.87046 23.356 6.11803 22.0828L2.99121 19.811C-0.927361 16.964 1.08652 10.766 5.93014 10.766H9.7951C11.9612 10.766 13.881 9.37116 14.5504 7.31105L15.7447 3.63525Z" fill="url(#paint0_linear_17_190)"/>
<defs>
<linearGradient id="paint0_linear_17_190" x1="20.5" y1="-11" x2="20.5" y2="52" gradientUnits="userSpaceOnUse">
<stop stop-color="#55F065"/>
<stop offset="1" stop-color="#00A913"/>
</linearGradient>
</defs>
</svg>
