<svg width="39" height="37" viewBox="0 0 39 37" fill="none" xmlns="http://www.w3.org/2000/svg">
<path d="M14.7447 3.63525C16.2415 -0.971298 22.7585 -0.971297 24.2553 3.63526L25.2251 6.62007C25.8945 8.68018 27.8143 10.075 29.9804 10.075H33.1188C37.9624 10.075 39.9763 16.2731 36.0577 19.1201L33.5187 20.9648C31.7663 22.238 31.033 24.4948 31.7023 26.555L32.6722 29.5398C34.1689 34.1463 28.8965 37.9769 24.978 35.1299L22.4389 33.2852C20.6865 32.012 18.3135 32.012 16.5611 33.2852L14.022 35.1299C10.1035 37.9769 4.83107 34.1463 6.32783 29.5398L7.29766 26.555C7.96703 24.4948 7.23374 22.238 5.4813 20.9648L2.94227 19.1201C-0.976301 16.2731 1.03758 10.075 5.88119 10.075H9.01961C11.1857 10.075 13.1055 8.68018 13.7749 6.62007L14.7447 3.63525Z" fill="url(#paint0_linear_17_192)"/>
<defs>
<linearGradient id="paint0_linear_17_192" x1="19.5" y1="-11" x2="19.5" y2="50" gradientUnits="userSpaceOnUse">
<stop offset="0.223958" stop-color="#008E9A"/>
<stop offset="0.520833" stop-color="#28C8D2"/>
</linearGradient>
</defs>
</svg>
